<svg width="17" height="22" viewBox="0 0 17 22" fill="none" xmlns="http://www.w3.org/2000/svg">
<path d="M16.2812 18.416C15.5612 19.3548 14.5632 20.0658 13.2871 20.5488C12.0111 21.0319 10.5618 21.2734 8.93945 21.2734C7.27148 21.2734 5.79492 20.8952 4.50977 20.1387C3.22461 19.3822 2.23112 18.3021 1.5293 16.8984C0.836589 15.4857 0.476562 13.8405 0.449219 11.9629V10.4043C0.449219 7.39648 1.16927 5.04948 2.60938 3.36328C4.04948 1.66797 6.05924 0.820312 8.63867 0.820312C10.8535 0.820312 12.6126 1.36719 13.916 2.46094C15.2194 3.55469 16.0033 5.13151 16.2676 7.19141H12.877C12.4941 4.79427 11.1042 3.5957 8.70703 3.5957C7.15755 3.5957 5.97721 4.15625 5.16602 5.27734C4.36393 6.38932 3.94922 8.02539 3.92188 10.1855V11.7168C3.92188 13.8678 4.37305 15.5404 5.27539 16.7344C6.18685 17.9193 7.44922 18.5117 9.0625 18.5117C10.8307 18.5117 12.0885 18.1107 12.8359 17.3086V13.4121H8.73438V10.7871H16.2812V18.416Z" fill="#48B774"/>
</svg>
